<svg xmlns="http://www.w3.org/2000/svg" width="55" height="28" viewBox="0 0 55 28">
  <metadata><?xpacket begin="﻿" id="W5M0MpCehiHzreSzNTczkc9d"?>
<x:xmpmeta xmlns:x="adobe:ns:meta/" x:xmptk="Adobe XMP Core 5.6-c138 79.159824, 2016/09/14-01:09:01        ">
   <rdf:RDF xmlns:rdf="http://www.w3.org/1999/02/22-rdf-syntax-ns#">
      <rdf:Description rdf:about=""/>
   </rdf:RDF>
</x:xmpmeta>
                                                                                                    
                                                                                                    
                                                                                                    
                                                                                                    
                                                                                                    
                                                                                                    
                                                                                                    
                                                                                                    
                                                                                                    
                                                                                                    
                                                                                                    
                                                                                                    
                                                                                                    
                                                                                                    
                                                                                                    
                                                                                                    
                                                                                                    
                                                                                                    
                                                                                                    
                                                                                                    
                           
<?xpacket end="w"?></metadata>
<defs>
    <style>
      .cls-1 {
        fill: #edbd18;
        fill-rule: evenodd;
      }
    </style>
  </defs>
  <path class="cls-1" d="M868.4,953.973q-13.3,0-26.6.015c-0.62,0-.809-0.131-0.8-0.8,0.038-3.243.027-6.487,0.007-9.73,0-.529.061-0.766,0.681-0.776a2.961,2.961,0,0,0,0-5.908c-0.623-.006-0.682-0.254-0.679-0.778,0.019-3.1.03-6.193-.008-9.288-0.007-.63.214-0.7,0.738-0.7q19.824,0.019,39.65.011c4.59,0,9.179.012,13.769-.016,0.618,0,.754.189,0.749,0.787-0.029,3.119-.05,6.238.1,9.355,0.023,0.506-.112.6-0.593,0.6a2.982,2.982,0,1,0,.036,5.964c0.476-.014.568,0.1,0.551,0.551-0.131,3.363-.123,6.728-0.088,10.093,0.007,0.652-.319.637-0.758,0.636q-7.029-.008-14.058,0H868.4v-0.008Zm0-25.155h-3.388c-6.849,0-13.7.01-20.546-.011-0.6,0-.777.153-0.756,0.772,0.045,1.4.025,2.8,0,4.2a0.769,0.769,0,0,0,.446.805,5.887,5.887,0,0,1,.016,10.265,0.769,0.769,0,0,0-.463.792c0.024,1.548.043,3.1,0,4.644-0.021.656,0.126,0.875,0.811,0.87,4.8-.031,9.6-0.016,14.4-0.015h11.246c7.353,0,14.706-.014,22.059.016,0.748,0,.934-0.215.9-0.952-0.058-1.5-.03-3-0.01-4.5a0.834,0.834,0,0,0-.481-0.867,5.892,5.892,0,0,1-.01-10.228,0.835,0.835,0,0,0,.493-0.862c-0.023-1.351-.047-2.7.008-4.054,0.028-.7-0.166-0.9-0.867-0.9C884.305,928.83,876.351,928.82,868.4,928.818Zm-5.6,10.758-2.526,3.934-2.683-4.171c0,1.934-.024,3.665.014,5.395,0.012,0.55-.119.737-0.668,0.688a16.129,16.129,0,0,0-1.8-.007,0.348,0.348,0,0,1-.414-0.429q0.012-4.936,0-9.872c0-.315.088-0.436,0.4-0.43,0.792,0.016,1.585.023,2.377,0a0.629,0.629,0,0,1,.594.427c0.714,1.192,1.43,2.382,2.2,3.664,0.715-1.184,1.423-2.307,2.076-3.464a1,1,0,0,1,1.067-.629,12.981,12.981,0,0,0,1.871.006c0.427-.025.586,0.075,0.583,0.555q-0.031,4.825,0,9.651a0.43,0.43,0,0,1-.543.528c-0.764-.041-1.752.251-2.236-0.135-0.511-.406-0.138-1.463-0.159-2.234-0.031-1.144-.008-2.289-0.008-3.434Zm4.882,0.471c0-1.6.015-3.194-.009-4.79-0.007-.434.073-0.6,0.543-0.577a36.808,36.808,0,0,1,5.1.147,4.967,4.967,0,0,1,4.333,5.551,5.153,5.153,0,0,1-4.753,4.942c-1.6.187-3.215,0.053-4.822,0.1-0.407.011-.4-0.216-0.4-0.508C867.677,943.289,867.674,941.668,867.675,940.047Zm2.959-.068v1.252c0,1.586,0,1.586,1.566,1.468a2.678,2.678,0,0,0-.011-5.333c-0.383-.027-0.769,0-1.152-0.023-0.319-.021-0.415.114-0.408,0.426C870.645,938.505,870.634,939.242,870.634,939.979Zm11.008,4.493c0.238,0.965-.227,1-0.783.941-0.634-.069-1.487.291-1.845-0.159a3.643,3.643,0,0,1-.089-1.862c0-2.7.012-5.407-.014-8.11,0-.524.079-0.768,0.655-0.7a7.277,7.277,0,0,0,1.512,0c0.532-.052.64,0.172,0.623,0.665-0.035.977-.01,1.955-0.01,2.927a0.356,0.356,0,0,0,.158.027c2.153-1.8,4.808-.941,5.516,1.812a5.377,5.377,0,0,1-.218,3.389A3.275,3.275,0,0,1,881.642,944.472Zm1.573-4.885a1.664,1.664,0,0,0-1.559,1.77,1.592,1.592,0,1,0,3.155.069A1.747,1.747,0,0,0,883.215,939.587Zm-30.367.515c0,1.6-.014,3.19.009,4.784,0,0.422-.124.552-0.529,0.533-0.646-.031-1.3-0.031-1.942,0-0.4.019-.479-0.135-0.478-0.51q0.018-4.859,0-9.715c0-.437.145-0.53,0.532-0.512,0.647,0.028,1.3.029,1.943,0,0.377-.017.485,0.1,0.48,0.49-0.019,1.644-.008,3.288-0.008,4.931h0Z" transform="translate(-841 -926)"/>
</svg>
